<svg width="87" height="87" viewBox="0 0 87 87" fill="none" xmlns="http://www.w3.org/2000/svg">
<path d="M49.55 36.8438C47.865 35.1588 45.5797 34.2122 43.1968 34.2122C40.8139 34.2122 38.5286 35.1588 36.8436 36.8438C35.1586 38.5288 34.212 40.8141 34.212 43.197C34.212 45.58 35.1586 47.8653 36.8436 49.5503C38.5286 51.2352 40.8139 52.1819 43.1968 52.1819C45.5797 52.1819 47.865 51.2352 49.55 49.5503C51.235 47.8653 52.1816 45.58 52.1816 43.197C52.1816 40.8141 51.235 38.5288 49.55 36.8438Z" stroke="#008751" stroke-width="2.69545" stroke-linecap="round" stroke-linejoin="round"/>
<path d="M61.0138 27.9772L60.9884 27.9518M25.4358 58.4727L25.4104 58.4473" stroke="#008751" stroke-width="3.59393" stroke-linecap="round" stroke-linejoin="round"/>
<path d="M71.1513 50.8209C77.4537 44.5185 80.8234 39.197 82.4778 36.0585C83.4308 34.2517 82.9454 32.1195 81.5019 30.6761L56.7116 5.8858C53.8781 3.05227 48.6253 4.04083 46.3661 7.35213C44.4271 10.1907 41.6774 13.6672 37.8375 17.5071C25.7664 29.5783 18.2797 27.8858 4.48305 49.4893C3.84199 50.5062 3.56689 51.7113 3.70319 52.9057C3.83949 54.1 4.37903 55.2122 5.23273 56.0585L30.6939 81.5197C33.1742 84 37.3191 83.4689 39.2708 80.5515C52.1424 61.3063 59.5147 62.4575 71.1513 50.8209Z" stroke="#008751" stroke-width="2.69545" stroke-linecap="round" stroke-linejoin="round"/>
</svg>
